<?xml version="1.0" encoding="UTF-8"?>
<!-- Generator: Adobe Illustrator 16.0.4, SVG Export Plug-In . SVG Version: 6.00 Build 0)  -->
<!DOCTYPE svg PUBLIC "-//W3C//DTD SVG 1.1//EN" "http://www.w3.org/Graphics/SVG/1.1/DTD/svg11.dtd">
<svg version="1.1" id="Layer_1" xmlns="http://www.w3.org/2000/svg" xmlns:xlink="http://www.w3.org/1999/xlink" x="0px" y="0px" width="50px" height="50px" viewBox="0 0 50 50" enable-background="new 0 0 50 50" xml:space="preserve">
<g>
	<path fill="#A3A3A3" d="M9.531,12.552c1.52-4.363,5.67-7.493,10.553-7.493c1.36,0,2.666,0.243,3.875,0.692   c1.785-1.213,3.943-1.922,6.263-1.922c5.373,0,9.859,3.792,10.93,8.845C46.207,13.744,50,18.23,50,23.603   c0,6.169-5.002,11.172-11.173,11.172H11.172C5.003,34.774,0,29.771,0,23.603C0,17.991,4.139,13.345,9.531,12.552L9.531,12.552z"/>
	<path fill="#ECECEC" d="M12.404,16.021c0.111-4.146,3.506-7.472,7.679-7.472c1.627,0,3.137,0.507,4.38,1.37   c1.408-1.594,3.467-2.598,5.758-2.598c4.244,0,7.68,3.438,7.68,7.68c0,0.333-0.023,0.662-0.063,0.983   c0.323-0.041,0.651-0.062,0.989-0.062c4.237,0,7.676,3.439,7.676,7.682s-3.438,7.681-7.676,7.681c-4.242,0-23.483,0-27.66,0   c-4.241,0-7.677-3.438-7.677-7.681s3.436-7.682,7.677-7.682C11.592,15.921,12.003,15.956,12.404,16.021L12.404,16.021z"/>
	<path fill="#A3A3A3" d="M10.361,27.072c1.696-2.759,4.742-4.598,8.219-4.598c4.621,0,8.484,3.25,9.421,7.594l-4.61-2.545   c1.038-0.381,2.157-0.586,3.313-0.586c5.307,0,9.633,4.295,9.633,9.615c0,5.322-4.326,9.615-9.633,9.615H11.957   c-5.311,0-9.636-4.29-9.636-9.615C2.319,31.78,5.806,27.83,10.361,27.072L10.361,27.072z"/>
	<path fill="#ECECEC" d="M24.589,30.806c0.659-0.243,1.373-0.374,2.118-0.374c3.395,0,6.146,2.742,6.146,6.124   c0,3.384-2.752,6.125-6.146,6.125c-2.951,0-11.922,0-14.748,0c-3.394,0-6.146-2.741-6.146-6.125c0-3.382,2.751-6.124,6.146-6.124   c0.235,0,0.463,0.014,0.697,0.039c0.713-2.598,3.097-4.502,5.927-4.502C21.53,25.967,23.996,28.041,24.589,30.806L24.589,30.806z"/>
</g>
</svg>