<svg width="41" height="40" viewBox="0 0 41 40" fill="none" xmlns="http://www.w3.org/2000/svg">
<g clip-path="url(#clip0)">
<g style="mix-blend-mode:multiply">
<path d="M11.1165 22.48C10.1775 22.48 9.29719 22.661 8.47554 23.0229C7.65389 23.3849 6.93201 23.8735 6.30991 24.4888C5.68781 25.1041 5.20069 25.8401 4.84855 26.6967C4.49642 27.5533 4.31448 28.4642 4.30275 29.4294C4.30275 30.3946 4.47881 31.2934 4.83095 32.1259C5.18308 32.9584 5.66433 33.6943 6.2747 34.3338C6.88506 34.9732 7.60694 35.4739 8.44033 35.8359C9.27371 36.1978 10.1482 36.3788 11.0637 36.3788H31.3467C32.5909 36.3788 33.7588 36.1375 34.8504 35.6549C35.942 35.1723 36.8987 34.5148 37.7203 33.6823C38.542 32.8498 39.1875 31.8665 39.6571 30.7324C40.1266 29.5983 40.3613 28.3918 40.3613 27.1129C40.3613 25.834 40.1266 24.6336 39.6571 23.5115C39.1875 22.3895 38.5478 21.4062 37.7379 20.5617C36.928 19.7171 35.9714 19.0535 34.868 18.5709C33.7647 18.0883 32.5909 17.847 31.3467 17.847C30.8067 17.847 30.2609 17.9013 29.7093 18.0099C29.2397 17.2619 28.6998 16.5923 28.0894 16.0011C27.4791 15.4099 26.8041 14.9032 26.0647 14.4809C25.3252 14.0587 24.5505 13.745 23.7406 13.5399C22.9307 13.3348 22.0855 13.2262 21.2052 13.2141C19.9023 13.2141 18.6757 13.4494 17.5254 13.9199C16.3751 14.3904 15.348 15.0359 14.4442 15.8563C13.5404 16.6767 12.8068 17.66 12.2434 18.8062C11.68 19.9524 11.3044 21.177 11.1165 22.48Z" fill="black" fill-opacity="0.1"/>
</g>
<g filter="url(#filter0_dd)">
<path fill-rule="evenodd" clip-rule="evenodd" d="M1.9797 16.9994C2.28326 17.0758 2.59267 17.1402 2.90746 17.1919C8.83244 18.1645 14.422 14.2711 15.392 8.49563C15.7266 6.50389 15.468 4.54844 14.7427 2.80122C20.1526 4.16351 23.7051 9.3586 22.7866 14.8272C21.8165 20.6026 16.227 24.4961 10.302 23.5234C6.42031 22.8862 3.35767 20.3186 1.9797 16.9994Z" fill="url(#paint0_linear)"/>
</g>
<mask id="mask0" mask-type="alpha" maskUnits="userSpaceOnUse" x="1" y="2" width="22" height="22">
<path fill-rule="evenodd" clip-rule="evenodd" d="M1.98165 16.9998C2.28521 17.0762 2.59462 17.1406 2.90942 17.1923C8.83439 18.1649 14.4239 14.2714 15.394 8.496C15.7285 6.50426 15.47 4.5488 14.7446 2.80159C20.1546 4.16388 23.707 9.35896 22.7885 14.8276C21.8184 20.603 16.2289 24.4964 10.3039 23.5238C6.42227 22.8866 3.35962 20.3189 1.98165 16.9998Z" fill="url(#paint1_linear)"/>
</mask>
<g mask="url(#mask0)">
<path d="M10.7465 20.5115C9.8279 20.5115 8.96671 20.6751 8.16292 21.0023C7.35914 21.3295 6.65295 21.7712 6.04438 22.3275C5.43579 22.8837 4.95927 23.549 4.61479 24.3234C4.27031 25.0978 4.09233 25.9212 4.08085 26.7938C4.08085 27.6663 4.25309 28.4789 4.59756 29.2314C4.94204 29.984 5.41283 30.6493 6.00993 31.2274C6.60703 31.8054 7.31321 32.2581 8.12847 32.5853C8.94374 32.9125 9.79919 33.0761 10.6948 33.0761H30.5368C31.754 33.0761 32.8965 32.8579 33.9644 32.4217C35.0323 31.9854 35.9681 31.391 36.7719 30.6384C37.5757 29.8858 38.2072 28.9969 38.6665 27.9717C39.1258 26.9465 39.3555 25.8558 39.3555 24.6997C39.3555 23.5436 39.1258 22.4584 38.6665 21.444C38.2072 20.4297 37.5814 19.5408 36.7891 18.7773C35.9968 18.0139 35.061 17.414 33.9816 16.9777C32.9022 16.5415 31.754 16.3233 30.5368 16.3233C30.0086 16.3233 29.4747 16.3724 28.935 16.4706C28.4757 15.7943 27.9475 15.189 27.3504 14.6546C26.7533 14.1202 26.093 13.6621 25.3696 13.2803C24.6462 12.8986 23.8884 12.615 23.0961 12.4296C22.3038 12.2442 21.477 12.146 20.6158 12.1351C19.3413 12.1351 18.1413 12.3478 17.016 12.7732C15.8907 13.1985 14.886 13.782 14.0018 14.5237C13.1177 15.2654 12.4 16.1543 11.8488 17.1904C11.2977 18.2265 10.9302 19.3336 10.7465 20.5115Z" fill="#1D1300" fill-opacity="0.1"/>
</g>
<path d="M11.7253 21.8808C10.8572 21.8808 10.0434 22.05 9.28386 22.3886C8.52431 22.7271 7.85699 23.1842 7.2819 23.7597C6.70681 24.3352 6.25651 25.0236 5.93099 25.8248C5.60547 26.626 5.43728 27.478 5.42643 28.3808C5.42643 29.2836 5.58919 30.1243 5.91471 30.9029C6.24023 31.6816 6.68511 32.3699 7.24935 32.968C7.81359 33.5661 8.4809 34.0344 9.2513 34.373C10.0217 34.7115 10.8301 34.8808 11.6764 34.8808H30.4264C31.5766 34.8808 32.6562 34.6551 33.6654 34.2037C34.6745 33.7523 35.5588 33.1373 36.3184 32.3586C37.0779 31.58 37.6747 30.6603 38.1087 29.5995C38.5428 28.5388 38.7598 27.4103 38.7598 26.2141C38.7598 25.0179 38.5428 23.8951 38.1087 22.8456C37.6747 21.7961 37.0833 20.8764 36.3346 20.0865C35.5859 19.2966 34.7016 18.6759 33.6816 18.2245C32.6617 17.7731 31.5766 17.5474 30.4264 17.5474C29.9273 17.5474 29.4227 17.5982 28.9128 17.6998C28.4787 17.0001 27.9796 16.3738 27.4154 15.8209C26.8511 15.2679 26.2272 14.794 25.5436 14.399C24.86 14.004 24.1439 13.7106 23.3952 13.5188C22.6465 13.327 21.8652 13.2254 21.0514 13.2141C19.847 13.2141 18.7131 13.4342 17.6497 13.8743C16.5864 14.3144 15.6369 14.9181 14.8014 15.6855C13.9659 16.4528 13.2878 17.3725 12.7669 18.4446C12.2461 19.5166 11.8989 20.662 11.7253 21.8808Z" fill="url(#paint2_linear)"/>
<path d="M38.6451 25.4637C38.6451 29.3753 34.6766 31.7688 30.7473 31.7688C26.8181 31.7688 23.6328 28.5978 23.6328 24.6863C23.6328 20.7747 26.8181 17.6038 30.7473 17.6038C34.6766 17.6038 38.6451 21.5522 38.6451 25.4637Z" fill="url(#paint3_linear)"/>
<path d="M28.4024 20.0824C26.7782 20.0824 25.3306 20.681 24.2007 21.6318C24.2007 21.6318 24.1654 21.6318 24.1654 21.667C24.8363 20.2584 26.0014 19.0964 27.4137 18.4274C26.2133 17.054 24.4832 16.2089 22.5059 16.2089C18.9398 16.2089 16.0799 19.0964 16.0799 22.5825C16.0799 23.1459 16.1505 23.7093 16.2917 24.2375C15.7974 24.0615 15.2678 23.9558 14.7029 23.9558C12.2313 23.9558 10.2188 25.963 10.2188 28.3927C10.2188 30.8224 12.2313 32.8296 14.7029 32.8296C14.7382 32.8296 14.7735 32.8296 14.7735 32.8296H28.2611C28.2964 32.8296 28.3318 32.8296 28.3671 32.8296C31.9332 32.8296 34.7931 29.9421 34.7931 26.456C34.7931 22.9699 31.9332 20.0824 28.4024 20.0824Z" fill="url(#paint4_linear)"/>
</g>
<defs>
<filter id="filter0_dd" x="-0.0195312" y="0.801208" width="24.9514" height="25.8711" filterUnits="userSpaceOnUse" color-interpolation-filters="sRGB">
<feFlood flood-opacity="0" result="BackgroundImageFix"/>
<feColorMatrix in="SourceAlpha" type="matrix" values="0 0 0 0 0 0 0 0 0 0 0 0 0 0 0 0 0 0 127 0" result="hardAlpha"/>
<feOffset/>
<feGaussianBlur stdDeviation="1"/>
<feColorMatrix type="matrix" values="0 0 0 0 0.996078 0 0 0 0 0.878431 0 0 0 0 0.411765 0 0 0 1 0"/>
<feBlend mode="normal" in2="BackgroundImageFix" result="effect1_dropShadow"/>
<feColorMatrix in="SourceAlpha" type="matrix" values="0 0 0 0 0 0 0 0 0 0 0 0 0 0 0 0 0 0 127 0" result="hardAlpha"/>
<feOffset dy="1"/>
<feGaussianBlur stdDeviation="1"/>
<feColorMatrix type="matrix" values="0 0 0 0 0 0 0 0 0 0 0 0 0 0 0 0 0 0 0.25 0"/>
<feBlend mode="normal" in2="effect1_dropShadow" result="effect2_dropShadow"/>
<feBlend mode="normal" in="SourceGraphic" in2="effect2_dropShadow" result="shape"/>
</filter>
<linearGradient id="paint0_linear" x1="17.4789" y1="24.4652" x2="4.39232" y2="7.49503" gradientUnits="userSpaceOnUse">
<stop offset="0.230136" stop-color="#FF9900"/>
<stop offset="0.590632" stop-color="#FBE000"/>
</linearGradient>
<linearGradient id="paint1_linear" x1="17.4809" y1="24.4656" x2="4.39427" y2="7.49539" gradientUnits="userSpaceOnUse">
<stop offset="0.230136" stop-color="#FF9900"/>
<stop offset="0.590632" stop-color="#FBE000"/>
</linearGradient>
<linearGradient id="paint2_linear" x1="10.0509" y1="16.6915" x2="38.6052" y2="33.8732" gradientUnits="userSpaceOnUse">
<stop stop-color="white"/>
<stop offset="0.551728" stop-color="#D9E7EF"/>
<stop offset="0.96875" stop-color="#ADDDF9"/>
</linearGradient>
<linearGradient id="paint3_linear" x1="28.3081" y1="17.8061" x2="30.1219" y2="25.9039" gradientUnits="userSpaceOnUse">
<stop offset="0.265243" stop-color="#F4F8FA"/>
<stop offset="0.899425" stop-color="#F4F8FA" stop-opacity="0"/>
</linearGradient>
<linearGradient id="paint4_linear" x1="13.0514" y1="21.9614" x2="31.2535" y2="33.8922" gradientUnits="userSpaceOnUse">
<stop offset="0.0589154" stop-color="#BAD7E7"/>
<stop offset="0.464316" stop-color="#DEEBF2"/>
<stop offset="0.6583" stop-color="#DEEBF2"/>
<stop offset="1" stop-color="#BDE1F6"/>
</linearGradient>
<clipPath id="clip0">
<rect width="40" height="40" fill="white" transform="translate(0.425781)"/>
</clipPath>
</defs>
</svg>
