<?xml version="1.0" encoding="UTF-8"?>
<!-- Generator: Adobe Illustrator 16.0.4, SVG Export Plug-In . SVG Version: 6.00 Build 0)  -->
<!DOCTYPE svg PUBLIC "-//W3C//DTD SVG 1.1//EN" "http://www.w3.org/Graphics/SVG/1.1/DTD/svg11.dtd">
<svg version="1.1" id="Layer_1" xmlns="http://www.w3.org/2000/svg" xmlns:xlink="http://www.w3.org/1999/xlink" x="0px" y="0px" width="50px" height="50px" viewBox="0 0 50 50" enable-background="new 0 0 50 50" xml:space="preserve">
<g>
	<path fill="#8F8F8F" d="M11.263,7.744c1.352-3.875,5.035-6.654,9.372-6.654c1.208,0,2.367,0.217,3.441,0.614   C25.661,0.63,27.577,0,29.639,0c4.766,0,8.75,3.366,9.7,7.853c4.491,0.95,7.854,4.935,7.854,9.705c0,5.478-4.438,9.917-9.92,9.917   H12.721c-5.478,0-9.92-4.438-9.92-9.917C2.801,12.574,6.477,8.45,11.263,7.744L11.263,7.744z"/>
	<path fill="#CECECE" d="M13.815,10.824c0.097-3.681,3.112-6.634,6.818-6.634c1.447,0,2.789,0.45,3.889,1.216   c1.25-1.414,3.078-2.307,5.119-2.307c3.766,0,6.821,3.053,6.821,6.82c0,0.296-0.021,0.588-0.058,0.875   c0.289-0.037,0.576-0.056,0.879-0.056c3.765,0,6.822,3.053,6.822,6.821s-3.059,6.821-6.822,6.821c-3.766,0-20.853,0-24.558,0   c-3.765,0-6.821-3.053-6.821-6.821s3.051-6.821,6.818-6.821C13.093,10.736,13.458,10.767,13.815,10.824L13.815,10.824z"/>
	<path fill="#8F8F8F" d="M12,20.639c1.506-2.45,4.212-4.08,7.299-4.08c4.104,0,7.539,2.884,8.37,6.743l-4.094-2.26   c0.922-0.337,1.915-0.52,2.942-0.52c4.715,0,8.555,3.812,8.555,8.539s-3.84,8.535-8.555,8.535H13.417   c-4.715,0-8.556-3.812-8.556-8.535C4.86,24.817,7.956,21.311,12,20.639L12,20.639z"/>
	<path fill="#CECECE" d="M24.635,23.952c0.585-0.214,1.218-0.33,1.878-0.33c3.014,0,5.457,2.435,5.457,5.438   c0,3.002-2.443,5.438-5.457,5.438c-2.624,0-10.583,0-13.098,0c-3.014,0-5.458-2.434-5.458-5.438c0-3.002,2.443-5.438,5.458-5.438   c0.207,0,0.412,0.011,0.615,0.034c0.634-2.305,2.749-3.998,5.264-3.998C21.919,19.657,24.108,21.497,24.635,23.952L24.635,23.952z"/>
	<path fill="#4897FF" d="M33.721,42.638c0.367,0.699,0.579,1.496,0.579,2.344c0,2.773-2.247,5.019-5.019,5.019   c-2.773,0-5.017-2.243-5.017-5.019c0-0.844,0.209-1.641,0.577-2.344l3.082-5.799c0,0,0.468-1.005,1.358-1.005   c0.941,0,1.379,1.005,1.379,1.005L33.721,42.638L33.721,42.638z"/>
	<path fill="#4897FF" d="M45.453,31.791c0.41,0.773,0.645,1.664,0.645,2.604c0,3.084-2.496,5.576-5.578,5.576   c-3.08,0-5.578-2.492-5.578-5.576c0-0.938,0.233-1.826,0.646-2.604l3.42-6.443c0,0,0.52-1.113,1.514-1.113   c1.045,0,1.533,1.113,1.533,1.113L45.453,31.791L45.453,31.791z"/>
	<path fill="#4897FF" d="M21.302,37.557c0.458,0.865,0.717,1.852,0.717,2.894c0,3.422-2.776,6.196-6.198,6.196   c-3.423,0-6.2-2.773-6.2-6.196c0-1.041,0.259-2.027,0.717-2.894l3.799-7.156c0,0,0.579-1.235,1.685-1.235   c1.162,0,1.7,1.235,1.7,1.235L21.302,37.557L21.302,37.557z"/>
</g>
</svg>